<svg width="1440" height="383" viewBox="0 0 1440 383" fill="none" xmlns="http://www.w3.org/2000/svg">
<path fill-rule="evenodd" clip-rule="evenodd" d="M0 297.342L60 269.774C120 241.221 240 184.116 360 191.008C480 198.884 600 269.774 720 269.774C840 269.774 960 198.884 1080 205.776C1200 212.668 1320 297.342 1380 340.663L1440 383V0H1380C1320 0 1200 0 1080 0C960 0 840 0 720 0C600 0 480 0 360 0C240 0 120 0 60 0H0V297.342Z" fill="url(#paint0_linear_401_3)"/>
<path d="M454.72 94.448C455.424 92.912 456.416 91.76 457.696 90.992C458.976 90.224 460.384 89.84 461.92 89.84C464.224 89.84 466.304 90.576 468.16 92.048C470.016 93.52 470.944 95.376 470.944 97.616C470.944 98.704 470.656 99.824 470.08 100.976L444.736 153.296C443.904 155.024 442.656 156.368 440.992 157.328C439.328 158.224 437.536 158.672 435.616 158.672C433.696 158.672 431.904 158.224 430.24 157.328C428.576 156.368 427.328 155.024 426.496 153.296L401.152 100.976C400.64 99.952 400.384 98.832 400.384 97.616C400.384 95.44 401.344 93.616 403.264 92.144C405.184 90.608 407.328 89.84 409.696 89.84C411.232 89.84 412.64 90.224 413.92 90.992C415.264 91.76 416.288 92.912 416.992 94.448L435.904 135.344L454.72 94.448ZM492.507 109.616C499.803 109.616 505.179 111.376 508.635 114.896C512.155 118.352 513.915 123.632 513.915 130.736V150.8C513.915 153.232 513.179 155.152 511.707 156.56C510.299 157.904 508.315 158.576 505.755 158.576C503.515 158.576 501.659 157.936 500.187 156.656C498.779 155.376 498.011 153.648 497.883 151.472C496.987 153.776 495.483 155.568 493.371 156.848C491.259 158.128 488.731 158.768 485.787 158.768C482.523 158.768 479.579 158.128 476.955 156.848C474.331 155.504 472.251 153.68 470.715 151.376C469.243 149.008 468.507 146.352 468.507 143.408C468.507 140.016 469.371 137.328 471.099 135.344C472.891 133.296 475.707 131.824 479.547 130.928C483.387 130.032 488.571 129.584 495.099 129.584H497.691V128.432C497.691 126.192 497.179 124.592 496.155 123.632C495.131 122.608 493.403 122.096 490.971 122.096C488.347 122.096 484.507 122.992 479.451 124.784C477.979 125.296 476.731 125.552 475.707 125.552C474.107 125.552 472.827 124.976 471.867 123.824C470.907 122.672 470.427 121.168 470.427 119.312C470.427 117.904 470.715 116.752 471.291 115.856C471.867 114.96 472.795 114.16 474.075 113.456C476.315 112.304 479.131 111.376 482.523 110.672C485.915 109.968 489.243 109.616 492.507 109.616ZM489.819 147.344C492.123 147.344 494.011 146.544 495.483 144.944C496.955 143.28 497.691 141.168 497.691 138.608V137.456H496.155C492.059 137.456 489.147 137.84 487.419 138.608C485.691 139.312 484.827 140.528 484.827 142.256C484.827 143.728 485.275 144.944 486.171 145.904C487.131 146.864 488.347 147.344 489.819 147.344ZM532.036 158.576C529.604 158.576 527.556 157.936 525.892 156.656C524.292 155.312 523.492 153.328 523.492 150.704V117.68C523.492 115.056 524.292 113.104 525.892 111.824C527.556 110.48 529.604 109.808 532.036 109.808C534.468 109.808 536.484 110.48 538.084 111.824C539.748 113.104 540.58 115.056 540.58 117.68V150.704C540.58 153.328 539.748 155.312 538.084 156.656C536.484 157.936 534.468 158.576 532.036 158.576ZM532.036 103.088C529.156 103.088 526.852 102.352 525.124 100.88C523.46 99.344 522.628 97.328 522.628 94.832C522.628 92.336 523.46 90.352 525.124 88.88C526.852 87.408 529.156 86.672 532.036 86.672C534.852 86.672 537.124 87.408 538.852 88.88C540.58 90.352 541.444 92.336 541.444 94.832C541.444 97.328 540.58 99.344 538.852 100.88C537.188 102.352 534.916 103.088 532.036 103.088ZM581.788 109.616C585.884 109.616 589.5 110.608 592.636 112.592C595.772 114.576 598.204 117.424 599.932 121.136C601.724 124.784 602.62 129.04 602.62 133.904C602.62 138.768 601.724 143.088 599.932 146.864C598.204 150.64 595.74 153.584 592.54 155.696C589.404 157.744 585.82 158.768 581.788 158.768C578.652 158.768 575.772 158.128 573.148 156.848C570.588 155.568 568.636 153.808 567.292 151.568C567.1 153.744 566.236 155.472 564.7 156.752C563.228 157.968 561.276 158.576 558.844 158.576C556.284 158.576 554.236 157.872 552.7 156.464C551.228 154.992 550.492 153.072 550.492 150.704V97.52C550.492 95.28 551.292 93.456 552.892 92.048C554.492 90.576 556.604 89.84 559.228 89.84C561.724 89.84 563.74 90.512 565.276 91.856C566.812 93.2 567.58 94.992 567.58 97.232V116.336C568.988 114.288 570.94 112.656 573.436 111.44C575.996 110.224 578.78 109.616 581.788 109.616ZM576.508 146C579.452 146 581.724 144.976 583.324 142.928C584.924 140.816 585.724 137.808 585.724 133.904C585.724 130.192 584.924 127.344 583.324 125.36C581.788 123.376 579.548 122.384 576.604 122.384C573.596 122.384 571.292 123.408 569.692 125.456C568.092 127.44 567.292 130.32 567.292 134.096C567.292 137.936 568.092 140.88 569.692 142.928C571.292 144.976 573.564 146 576.508 146ZM642.652 109.616C648.156 109.616 652.252 111.312 654.94 114.704C657.628 118.032 658.972 123.12 658.972 129.968V150.704C658.972 153.136 658.204 155.056 656.668 156.464C655.132 157.872 653.052 158.576 650.428 158.576C647.804 158.576 645.724 157.872 644.188 156.464C642.652 155.056 641.884 153.136 641.884 150.704V129.584C641.884 124.976 639.9 122.672 635.932 122.672C633.372 122.672 631.324 123.504 629.788 125.168C628.316 126.768 627.58 128.944 627.58 131.696V150.704C627.58 153.136 626.812 155.056 625.276 156.464C623.74 157.872 621.66 158.576 619.036 158.576C616.412 158.576 614.332 157.872 612.796 156.464C611.26 155.056 610.492 153.136 610.492 150.704V97.52C610.492 95.28 611.292 93.456 612.892 92.048C614.492 90.576 616.604 89.84 619.228 89.84C621.724 89.84 623.74 90.512 625.276 91.856C626.812 93.2 627.58 94.992 627.58 97.232V116.432C629.308 114.192 631.452 112.496 634.012 111.344C636.572 110.192 639.452 109.616 642.652 109.616ZM690.601 109.616C697.897 109.616 703.273 111.376 706.729 114.896C710.249 118.352 712.009 123.632 712.009 130.736V150.8C712.009 153.232 711.273 155.152 709.801 156.56C708.393 157.904 706.409 158.576 703.849 158.576C701.609 158.576 699.753 157.936 698.281 156.656C696.873 155.376 696.105 153.648 695.977 151.472C695.081 153.776 693.577 155.568 691.465 156.848C689.353 158.128 686.825 158.768 683.881 158.768C680.617 158.768 677.673 158.128 675.049 156.848C672.425 155.504 670.345 153.68 668.809 151.376C667.337 149.008 666.601 146.352 666.601 143.408C666.601 140.016 667.465 137.328 669.193 135.344C670.985 133.296 673.801 131.824 677.641 130.928C681.481 130.032 686.665 129.584 693.193 129.584H695.785V128.432C695.785 126.192 695.273 124.592 694.249 123.632C693.225 122.608 691.497 122.096 689.065 122.096C686.441 122.096 682.601 122.992 677.545 124.784C676.073 125.296 674.825 125.552 673.801 125.552C672.201 125.552 670.921 124.976 669.961 123.824C669.001 122.672 668.521 121.168 668.521 119.312C668.521 117.904 668.809 116.752 669.385 115.856C669.961 114.96 670.889 114.16 672.169 113.456C674.409 112.304 677.225 111.376 680.617 110.672C684.009 109.968 687.337 109.616 690.601 109.616ZM687.913 147.344C690.217 147.344 692.105 146.544 693.577 144.944C695.049 143.28 695.785 141.168 695.785 138.608V137.456H694.249C690.153 137.456 687.241 137.84 685.513 138.608C683.785 139.312 682.921 140.528 682.921 142.256C682.921 143.728 683.369 144.944 684.265 145.904C685.225 146.864 686.441 147.344 687.913 147.344ZM753.17 114.608C753.874 113.008 754.834 111.824 756.05 111.056C757.33 110.288 758.706 109.904 760.178 109.904C762.29 109.904 764.146 110.608 765.746 112.016C767.41 113.424 768.242 115.12 768.242 117.104C768.242 118.192 767.986 119.248 767.474 120.272L750.674 153.68C749.906 155.28 748.786 156.528 747.314 157.424C745.906 158.256 744.338 158.672 742.61 158.672C740.882 158.672 739.282 158.256 737.81 157.424C736.338 156.528 735.218 155.28 734.45 153.68L717.65 120.272C717.138 119.12 716.882 118.096 716.882 117.2C716.882 115.152 717.746 113.424 719.474 112.016C721.266 110.544 723.314 109.808 725.618 109.808C727.154 109.808 728.562 110.224 729.842 111.056C731.186 111.824 732.21 113.008 732.914 114.608L743.09 136.592L753.17 114.608ZM827.584 158.864C822.464 158.864 817.696 158.32 813.28 157.232C808.928 156.08 805.344 154.512 802.528 152.528C801.44 151.696 800.64 150.832 800.128 149.936C799.68 149.04 799.456 147.888 799.456 146.48C799.456 144.56 800.032 142.896 801.184 141.488C802.336 140.08 803.68 139.376 805.216 139.376C806.048 139.376 806.848 139.504 807.616 139.76C808.384 140.016 809.344 140.496 810.496 141.2C813.12 142.672 815.712 143.728 818.272 144.368C820.896 145.008 823.84 145.328 827.104 145.328C830.88 145.328 833.728 144.784 835.648 143.696C837.632 142.544 838.624 140.88 838.624 138.704C838.624 137.232 837.696 135.984 835.84 134.96C834.048 133.872 830.592 132.816 825.472 131.792C819.136 130.448 814.176 128.848 810.592 126.992C807.008 125.136 804.48 122.96 803.008 120.464C801.6 117.904 800.896 114.832 800.896 111.248C800.896 107.152 802.112 103.44 804.544 100.112C806.976 96.784 810.304 94.192 814.528 92.336C818.816 90.416 823.616 89.456 828.928 89.456C833.6 89.456 837.76 89.968 841.408 90.992C845.056 92.016 848.384 93.616 851.392 95.792C852.544 96.624 853.344 97.52 853.792 98.48C854.304 99.376 854.56 100.496 854.56 101.84C854.56 103.76 853.984 105.424 852.832 106.832C851.744 108.24 850.432 108.944 848.896 108.944C848.064 108.944 847.296 108.848 846.592 108.656C845.888 108.4 844.896 107.888 843.616 107.12C843.296 106.928 842.368 106.448 840.832 105.68C839.36 104.848 837.6 104.208 835.552 103.76C833.568 103.248 831.392 102.992 829.024 102.992C825.76 102.992 823.136 103.632 821.152 104.912C819.168 106.128 818.176 107.76 818.176 109.808C818.176 111.024 818.528 112.016 819.232 112.784C819.936 113.552 821.248 114.32 823.168 115.088C825.088 115.792 827.936 116.528 831.712 117.296C837.856 118.64 842.688 120.272 846.208 122.192C849.728 124.048 852.224 126.224 853.696 128.72C855.168 131.216 855.904 134.16 855.904 137.552C855.904 141.776 854.72 145.52 852.352 148.784C849.984 151.984 846.656 154.48 842.368 156.272C838.144 158 833.216 158.864 827.584 158.864ZM886.726 109.616C894.022 109.616 899.398 111.376 902.854 114.896C906.374 118.352 908.134 123.632 908.134 130.736V150.8C908.134 153.232 907.398 155.152 905.926 156.56C904.518 157.904 902.534 158.576 899.974 158.576C897.734 158.576 895.878 157.936 894.406 156.656C892.998 155.376 892.23 153.648 892.102 151.472C891.206 153.776 889.702 155.568 887.59 156.848C885.478 158.128 882.95 158.768 880.006 158.768C876.742 158.768 873.798 158.128 871.174 156.848C868.55 155.504 866.47 153.68 864.934 151.376C863.462 149.008 862.726 146.352 862.726 143.408C862.726 140.016 863.59 137.328 865.318 135.344C867.11 133.296 869.926 131.824 873.766 130.928C877.606 130.032 882.79 129.584 889.318 129.584H891.91V128.432C891.91 126.192 891.398 124.592 890.374 123.632C889.35 122.608 887.622 122.096 885.19 122.096C882.566 122.096 878.726 122.992 873.67 124.784C872.198 125.296 870.95 125.552 869.926 125.552C868.326 125.552 867.046 124.976 866.086 123.824C865.126 122.672 864.646 121.168 864.646 119.312C864.646 117.904 864.934 116.752 865.51 115.856C866.086 114.96 867.014 114.16 868.294 113.456C870.534 112.304 873.35 111.376 876.742 110.672C880.134 109.968 883.462 109.616 886.726 109.616ZM884.038 147.344C886.342 147.344 888.23 146.544 889.702 144.944C891.174 143.28 891.91 141.168 891.91 138.608V137.456H890.374C886.278 137.456 883.366 137.84 881.638 138.608C879.91 139.312 879.046 140.528 879.046 142.256C879.046 143.728 879.494 144.944 880.39 145.904C881.35 146.864 882.566 147.344 884.038 147.344ZM926.255 158.576C923.823 158.576 921.775 157.936 920.111 156.656C918.511 155.312 917.711 153.328 917.711 150.704V117.68C917.711 115.056 918.511 113.104 920.111 111.824C921.775 110.48 923.823 109.808 926.255 109.808C928.687 109.808 930.703 110.48 932.303 111.824C933.967 113.104 934.799 115.056 934.799 117.68V150.704C934.799 153.328 933.967 155.312 932.303 156.656C930.703 157.936 928.687 158.576 926.255 158.576ZM926.255 103.088C923.375 103.088 921.071 102.352 919.343 100.88C917.679 99.344 916.847 97.328 916.847 94.832C916.847 92.336 917.679 90.352 919.343 88.88C921.071 87.408 923.375 86.672 926.255 86.672C929.071 86.672 931.343 87.408 933.071 88.88C934.799 90.352 935.663 92.336 935.663 94.832C935.663 97.328 934.799 99.344 933.071 100.88C931.407 102.352 929.135 103.088 926.255 103.088ZM976.487 109.616C982.119 109.616 986.311 111.312 989.063 114.704C991.815 118.032 993.191 123.12 993.191 129.968V150.704C993.191 153.136 992.423 155.056 990.887 156.464C989.351 157.872 987.271 158.576 984.647 158.576C982.023 158.576 979.943 157.872 978.407 156.464C976.871 155.056 976.103 153.136 976.103 150.704V130.736C976.103 127.92 975.591 125.872 974.567 124.592C973.607 123.312 972.135 122.672 970.151 122.672C967.591 122.672 965.543 123.504 964.007 125.168C962.535 126.768 961.799 128.944 961.799 131.696V150.704C961.799 153.136 961.031 155.056 959.495 156.464C957.959 157.872 955.879 158.576 953.255 158.576C950.631 158.576 948.551 157.872 947.015 156.464C945.479 155.056 944.711 153.136 944.711 150.704V117.488C944.711 115.248 945.511 113.424 947.111 112.016C948.711 110.544 950.791 109.808 953.351 109.808C955.783 109.808 957.703 110.48 959.111 111.824C960.583 113.168 961.319 114.928 961.319 117.104C962.983 114.672 965.127 112.816 967.751 111.536C970.375 110.256 973.287 109.616 976.487 109.616ZM1011.38 158.576C1008.95 158.576 1006.9 157.936 1005.24 156.656C1003.64 155.312 1002.84 153.328 1002.84 150.704V117.68C1002.84 115.056 1003.64 113.104 1005.24 111.824C1006.9 110.48 1008.95 109.808 1011.38 109.808C1013.81 109.808 1015.83 110.48 1017.43 111.824C1019.09 113.104 1019.92 115.056 1019.92 117.68V150.704C1019.92 153.328 1019.09 155.312 1017.43 156.656C1015.83 157.936 1013.81 158.576 1011.38 158.576ZM1011.38 103.088C1008.5 103.088 1006.2 102.352 1004.47 100.88C1002.8 99.344 1001.97 97.328 1001.97 94.832C1001.97 92.336 1002.8 90.352 1004.47 88.88C1006.2 87.408 1008.5 86.672 1011.38 86.672C1014.2 86.672 1016.47 87.408 1018.2 88.88C1019.92 90.352 1020.79 92.336 1020.79 94.832C1020.79 97.328 1019.92 99.344 1018.2 100.88C1016.53 102.352 1014.26 103.088 1011.38 103.088Z" fill="white"/>
<path d="M276.028 46.6C276.028 48.544 275.68 49.936 274.984 50.776C274.288 51.592 273.232 52 271.816 52C270.424 52 269.404 51.628 268.756 50.884C268.108 50.116 267.784 48.772 267.784 46.852L267.748 42.784H260.404V46.6C260.404 48.568 260.068 49.96 259.396 50.776C258.724 51.592 257.656 52 256.192 52C254.8 52 253.78 51.628 253.132 50.884C252.484 50.116 252.16 48.772 252.16 46.852L252.052 31.66C252.052 30.172 252.424 29.08 253.168 28.384C253.936 27.688 254.944 27.34 256.192 27.34C257.632 27.34 258.688 27.604 259.36 28.132C260.056 28.66 260.404 29.728 260.404 31.336V37.384H267.712V31.66C267.712 30.652 267.892 29.824 268.252 29.176C268.636 28.504 269.116 28.036 269.692 27.772C270.292 27.484 271 27.34 271.816 27.34C273.208 27.34 274.252 27.604 274.948 28.132C275.668 28.66 276.028 29.728 276.028 31.336V46.6ZM289.646 52.216C286.718 52.216 284.294 51.46 282.374 49.948C280.478 48.436 279.53 46.372 279.53 43.756C279.53 40.924 280.466 38.692 282.338 37.06C284.234 35.404 286.67 34.576 289.646 34.576C292.454 34.576 294.506 35.08 295.802 36.088C297.122 37.072 297.782 38.428 297.782 40.156C297.782 40.492 297.734 40.816 297.638 41.128C297.566 41.44 297.434 41.752 297.242 42.064C297.074 42.352 296.834 42.628 296.522 42.892C296.234 43.132 295.898 43.36 295.514 43.576C295.13 43.768 294.674 43.924 294.146 44.044C293.618 44.14 293.054 44.188 292.454 44.188L287.378 44.224C287.618 44.992 288.05 45.604 288.674 46.06C289.298 46.492 290.09 46.708 291.05 46.708C292.082 46.708 293.138 46.576 294.218 46.312C294.674 46.192 295.166 46 295.694 45.736C296.246 45.472 296.642 45.34 296.882 45.34C297.29 45.34 297.602 45.46 297.818 45.7C298.058 45.94 298.178 46.24 298.178 46.6C298.178 47.032 297.986 47.56 297.602 48.184C297.218 48.784 296.678 49.396 295.982 50.02C295.31 50.62 294.41 51.136 293.282 51.568C292.154 52 290.942 52.216 289.646 52.216ZM287.198 41.92C288.854 41.896 289.754 41.884 289.898 41.884C290.258 41.884 290.522 41.668 290.69 41.236C290.81 40.924 290.87 40.492 290.87 39.94C290.87 38.428 290.414 37.672 289.502 37.672C289.166 37.672 288.83 37.852 288.494 38.212C288.182 38.572 287.906 39.088 287.666 39.76C287.426 40.408 287.27 41.128 287.198 41.92ZM319.804 41.848C319.804 45.952 319.684 48.82 319.444 50.452C319.252 51.916 318.952 53.176 318.544 54.232C318.136 55.312 317.56 56.26 316.816 57.076C316.072 57.916 315.124 58.54 313.972 58.948C312.82 59.356 311.452 59.56 309.868 59.56C308.596 59.56 307.408 59.368 306.304 58.984C305.224 58.624 304.36 58.168 303.712 57.616C303.088 57.088 302.596 56.56 302.236 56.032C301.876 55.504 301.696 55.048 301.696 54.664C301.696 54.28 301.816 53.92 302.056 53.584C302.32 53.272 302.668 53.116 303.1 53.116C303.412 53.116 303.772 53.212 304.18 53.404C304.612 53.596 305.02 53.812 305.404 54.052C305.788 54.292 306.244 54.508 306.772 54.7C307.3 54.892 307.816 54.988 308.32 54.988C309.616 54.988 310.528 54.664 311.056 54.016C311.608 53.368 311.884 52.444 311.884 51.244C311.476 51.412 311.08 51.556 310.696 51.676C310.312 51.796 309.94 51.892 309.58 51.964C309.22 52.036 308.872 52.084 308.536 52.108C308.224 52.132 307.912 52.144 307.6 52.144C306.184 52.144 304.972 51.748 303.964 50.956C302.956 50.164 302.224 49.192 301.768 48.04C301.336 46.864 301.12 45.604 301.12 44.26C301.12 42.916 301.132 41.776 301.156 40.84C301.204 39.904 301.288 39.076 301.408 38.356C301.528 37.612 301.66 37.024 301.804 36.592C301.972 36.16 302.2 35.812 302.488 35.548C302.776 35.26 303.1 35.068 303.46 34.972C303.82 34.876 304.252 34.828 304.756 34.828C306.268 34.828 307.324 35.092 307.924 35.62C308.548 36.124 308.86 36.928 308.86 38.032L308.896 43.828C308.896 44.212 308.896 44.5 308.896 44.692C308.896 44.86 308.908 45.076 308.932 45.34C308.98 45.604 309.028 45.796 309.076 45.916C309.148 46.036 309.232 46.168 309.328 46.312C309.448 46.432 309.592 46.516 309.76 46.564C309.952 46.612 310.18 46.636 310.444 46.636C311.164 46.636 311.608 46.444 311.776 46.06C311.968 45.652 312.064 44.92 312.064 43.864L312.1 38.032C312.1 37.288 312.22 36.688 312.46 36.232C312.724 35.776 313.156 35.428 313.756 35.188C314.356 34.948 315.172 34.828 316.204 34.828C316.828 34.828 317.356 34.936 317.788 35.152C318.244 35.344 318.604 35.608 318.868 35.944C319.132 36.256 319.324 36.736 319.444 37.384C319.588 38.008 319.684 38.644 319.732 39.292C319.78 39.94 319.804 40.792 319.804 41.848ZM322.807 49.516C322.807 48.988 322.951 48.52 323.239 48.112C323.527 47.704 323.959 47.38 324.535 47.14C325.135 46.9 325.855 46.78 326.695 46.78C327.991 46.78 329.047 47.044 329.863 47.572C330.679 48.1 331.087 48.988 331.087 50.236C331.087 51.148 330.907 52.012 330.547 52.828C330.187 53.644 329.719 54.328 329.143 54.88C328.591 55.432 327.979 55.9 327.307 56.284C326.659 56.692 326.035 56.992 325.435 57.184C324.835 57.376 324.307 57.472 323.851 57.472C323.419 57.472 323.071 57.34 322.807 57.076C322.567 56.836 322.447 56.524 322.447 56.14C322.447 55.636 322.627 55.3 322.987 55.132C324.067 54.604 324.859 54.148 325.363 53.764C325.867 53.38 326.311 52.876 326.695 52.252C325.567 52.252 324.631 52.036 323.887 51.604C323.167 51.172 322.807 50.476 322.807 49.516ZM353.05 46.6C353.05 48.472 352.702 49.84 352.006 50.704C351.31 51.568 350.254 52 348.838 52C347.446 52 346.414 51.628 345.742 50.884C345.094 50.14 344.77 48.808 344.77 46.888V31.66C344.77 28.78 346.126 27.34 348.838 27.34C350.23 27.34 351.274 27.604 351.97 28.132C352.69 28.66 353.05 29.728 353.05 31.336V46.6ZM357.271 30.508C357.271 29.692 357.607 29.032 358.279 28.528C358.951 28.024 359.911 27.772 361.159 27.772C362.455 27.772 363.511 28.036 364.327 28.564C365.143 29.092 365.551 29.968 365.551 31.192C365.551 31.864 365.455 32.512 365.263 33.136C365.071 33.736 364.807 34.276 364.471 34.756C364.159 35.236 363.787 35.68 363.355 36.088C362.947 36.496 362.515 36.844 362.059 37.132C361.603 37.42 361.147 37.672 360.691 37.888C360.235 38.08 359.803 38.224 359.395 38.32C358.987 38.416 358.627 38.464 358.315 38.464C358.027 38.464 357.775 38.404 357.559 38.284C357.367 38.164 357.211 38.008 357.091 37.816C356.971 37.6 356.911 37.372 356.911 37.132C356.911 36.604 357.091 36.256 357.451 36.088C358.531 35.56 359.323 35.116 359.827 34.756C360.331 34.372 360.775 33.868 361.159 33.244C360.439 33.244 359.803 33.16 359.251 32.992C358.699 32.824 358.231 32.536 357.847 32.128C357.463 31.696 357.271 31.156 357.271 30.508ZM390.25 42.496C390.25 41.152 389.71 40.48 388.63 40.48C388.15 40.48 387.79 40.756 387.55 41.308C387.31 41.86 387.19 42.556 387.19 43.396C387.19 44.668 387.166 45.724 387.118 46.564C387.094 47.404 387.022 48.16 386.902 48.832C386.782 49.504 386.638 50.032 386.47 50.416C386.302 50.8 386.074 51.124 385.786 51.388C385.498 51.628 385.174 51.796 384.814 51.892C384.454 51.964 383.998 52 383.446 52C382.606 52 381.922 51.88 381.394 51.64C380.89 51.4 380.53 51.064 380.314 50.632C380.098 50.2 379.99 49.66 379.99 49.012V42.496C379.99 41.152 379.45 40.48 378.37 40.48C377.938 40.48 377.578 40.732 377.29 41.236C377.026 41.716 376.894 42.352 376.894 43.144V48.148C376.894 49.588 376.594 50.596 375.994 51.172C375.394 51.724 374.338 52 372.826 52C371.41 52 370.438 51.676 369.91 51.028C369.406 50.356 369.154 49.264 369.154 47.752V38.896C369.154 37.672 369.478 36.688 370.126 35.944C370.798 35.2 371.686 34.828 372.79 34.828C374.758 34.828 376.006 35.464 376.534 36.736C377.446 36.064 378.334 35.596 379.198 35.332C380.086 35.068 381.118 34.936 382.294 34.936C384.07 34.936 385.354 35.704 386.146 37.24C386.266 37.144 386.386 37.048 386.506 36.952C388.354 35.608 390.622 34.936 393.31 34.936C395.014 34.936 396.238 35.584 396.982 36.88C397.726 38.176 398.098 40.348 398.098 43.396C398.098 44.668 398.074 45.724 398.026 46.564C398.002 47.404 397.93 48.16 397.81 48.832C397.69 49.504 397.534 50.032 397.342 50.416C397.174 50.8 396.922 51.124 396.586 51.388C396.274 51.628 395.914 51.796 395.506 51.892C395.122 51.964 394.63 52 394.03 52C393.118 52 392.374 51.88 391.798 51.64C391.246 51.4 390.85 51.064 390.61 50.632C390.37 50.2 390.25 49.66 390.25 49.012V42.496Z" fill="white"/>
<defs>
<linearGradient id="paint0_linear_401_3" x1="720" y1="0" x2="720" y2="383" gradientUnits="userSpaceOnUse">
<stop stop-color="#8ACFD4"/>
<stop offset="1" stop-color="#8ACFD4" stop-opacity="0.3"/>
</linearGradient>
</defs>
</svg>
