<svg width="126" height="28" viewBox="0 0 126 28" fill="none" xmlns="http://www.w3.org/2000/svg">
<rect width="126" height="28" fill="#2867B2"/>
<rect x="5" y="5" width="18" height="18" fill="white"/>
<path d="M8.008 12.468H10.192V20H8.008V12.468ZM9.1 11.418C8.69867 11.418 8.372 11.3013 8.12 11.068C7.868 10.8347 7.742 10.5453 7.742 10.2C7.742 9.85467 7.868 9.56533 8.12 9.332C8.372 9.09867 8.69867 8.982 9.1 8.982C9.50133 8.982 9.828 9.094 10.08 9.318C10.332 9.542 10.458 9.822 10.458 10.158C10.458 10.522 10.332 10.8253 10.08 11.068C9.828 11.3013 9.50133 11.418 9.1 11.418ZM16.7969 12.356C17.7303 12.356 18.4816 12.636 19.0509 13.196C19.6296 13.756 19.9189 14.5867 19.9189 15.688V20H17.7349V16.024C17.7349 15.4267 17.6043 14.9833 17.3429 14.694C17.0816 14.3953 16.7036 14.246 16.2089 14.246C15.6583 14.246 15.2196 14.4187 14.8929 14.764C14.5663 15.1 14.4029 15.604 14.4029 16.276V20H12.2189V12.468H14.3049V13.35C14.5943 13.0327 14.9536 12.79 15.3829 12.622C15.8123 12.4447 16.2836 12.356 16.7969 12.356Z" fill="#2867B2"/>
<path d="M41.996 10.6H43.94V17.416H48.152V19H41.996V10.6ZM49.2382 10.6H51.1822V19H49.2382V10.6ZM60.8797 10.6V19H59.2837L55.0957 13.9V19H53.1757V10.6H54.7837L58.9597 15.7V10.6H60.8797ZM65.9271 15.7L64.7991 16.876V19H62.8671V10.6H64.7991V14.524L68.5191 10.6H70.6791L67.1991 14.344L70.8831 19H68.6151L65.9271 15.7ZM78.2539 17.44V19H71.7499V10.6H78.0979V12.16H73.6819V13.984H77.5819V15.496H73.6819V17.44H78.2539ZM79.8007 10.6H83.6167C84.5287 10.6 85.3327 10.776 86.0287 11.128C86.7327 11.472 87.2767 11.96 87.6607 12.592C88.0527 13.224 88.2487 13.96 88.2487 14.8C88.2487 15.64 88.0527 16.376 87.6607 17.008C87.2767 17.64 86.7327 18.132 86.0287 18.484C85.3327 18.828 84.5287 19 83.6167 19H79.8007V10.6ZM83.5207 17.404C84.3607 17.404 85.0287 17.172 85.5247 16.708C86.0287 16.236 86.2807 15.6 86.2807 14.8C86.2807 14 86.0287 13.368 85.5247 12.904C85.0287 12.432 84.3607 12.196 83.5207 12.196H81.7447V17.404H83.5207ZM89.7148 10.6H91.6588V19H89.7148V10.6ZM101.356 10.6V19H99.7603L95.5723 13.9V19H93.6523V10.6H95.2603L99.4362 15.7V10.6H101.356Z" fill="white"/>
</svg>
