<svg width="126" height="28" viewBox="0 0 126 28" fill="none" xmlns="http://www.w3.org/2000/svg">
<rect width="126" height="28" fill="#8ACFD4"/>
<rect x="4" y="4" width="20" height="20" fill="white"/>
<path d="M7.66231 9.84492L11.5012 19L8.53043 19L5.1028 10.8335C4.8213 10.1446 5.13389 9.37671 5.84517 9.09869C6.55995 8.8193 7.37352 9.1534 7.66231 9.84492Z" fill="#3655EE"/>
<path d="M14.1267 9.1049C13.4134 8.82612 12.6349 9.17105 12.3446 9.85953L10.0187 15.4334L11.5012 19L14.898 10.8629C15.1868 10.1714 14.8414 9.38429 14.1267 9.1049Z" fill="#51B5FF"/>
<path d="M17.6622 18.9015L22.6846 16.8133L20.089 15.3914L16.7606 16.7566C15.2582 17.3543 16.2059 19.4789 17.6622 18.9015Z" fill="#49743F"/>
<path d="M18.9309 12.5982L18.9296 12.5987L16.3048 11.1595V13.3183L20.089 15.3914L22.6846 16.8133L22.6846 14.6546L18.9309 12.5982Z" fill="#92EA79"/>
<path d="M21.3377 9.09848L16.3048 11.1595L18.9309 12.5982L22.2394 11.2433C23.7418 10.6456 22.794 8.52109 21.3377 9.09848Z" fill="#56AF39"/>
<path d="M38.996 19V10.6H42.632C43.384 10.6 44.032 10.724 44.576 10.972C45.12 11.212 45.54 11.56 45.836 12.016C46.132 12.472 46.28 13.016 46.28 13.648C46.28 14.272 46.132 14.812 45.836 15.268C45.54 15.724 45.12 16.076 44.576 16.324C44.032 16.564 43.384 16.684 42.632 16.684H40.076L40.94 15.808V19H38.996ZM40.94 16.024L40.076 15.1H42.524C43.124 15.1 43.572 14.972 43.868 14.716C44.164 14.46 44.312 14.104 44.312 13.648C44.312 13.184 44.164 12.824 43.868 12.568C43.572 12.312 43.124 12.184 42.524 12.184H40.076L40.94 11.26V16.024ZM51.8651 19.144C51.2011 19.144 50.5851 19.036 50.0171 18.82C49.4571 18.604 48.9691 18.3 48.5531 17.908C48.1451 17.516 47.8251 17.056 47.5931 16.528C47.3691 16 47.2571 15.424 47.2571 14.8C47.2571 14.176 47.3691 13.6 47.5931 13.072C47.8251 12.544 48.1491 12.084 48.5651 11.692C48.9811 11.3 49.4691 10.996 50.0291 10.78C50.5891 10.564 51.1971 10.456 51.8531 10.456C52.5171 10.456 53.1251 10.564 53.6771 10.78C54.2371 10.996 54.7211 11.3 55.1291 11.692C55.5451 12.084 55.8691 12.544 56.1011 13.072C56.3331 13.592 56.4491 14.168 56.4491 14.8C56.4491 15.424 56.3331 16.004 56.1011 16.54C55.8691 17.068 55.5451 17.528 55.1291 17.92C54.7211 18.304 54.2371 18.604 53.6771 18.82C53.1251 19.036 52.5211 19.144 51.8651 19.144ZM51.8531 17.488C52.2291 17.488 52.5731 17.424 52.8851 17.296C53.2051 17.168 53.4851 16.984 53.7251 16.744C53.9651 16.504 54.1491 16.22 54.2771 15.892C54.4131 15.564 54.4811 15.2 54.4811 14.8C54.4811 14.4 54.4131 14.036 54.2771 13.708C54.1491 13.38 53.9651 13.096 53.7251 12.856C53.4931 12.616 53.2171 12.432 52.8971 12.304C52.5771 12.176 52.2291 12.112 51.8531 12.112C51.4771 12.112 51.1291 12.176 50.8091 12.304C50.4971 12.432 50.2211 12.616 49.9811 12.856C49.7411 13.096 49.5531 13.38 49.4171 13.708C49.2891 14.036 49.2251 14.4 49.2251 14.8C49.2251 15.192 49.2891 15.556 49.4171 15.892C49.5531 16.22 49.7371 16.504 49.9691 16.744C50.2091 16.984 50.4891 17.168 50.8091 17.296C51.1291 17.424 51.4771 17.488 51.8531 17.488ZM57.9101 19V10.6H61.5461C62.2981 10.6 62.9461 10.724 63.4901 10.972C64.0341 11.212 64.4541 11.56 64.7501 12.016C65.0461 12.472 65.1941 13.016 65.1941 13.648C65.1941 14.272 65.0461 14.812 64.7501 15.268C64.4541 15.716 64.0341 16.06 63.4901 16.3C62.9461 16.54 62.2981 16.66 61.5461 16.66H58.9901L59.8541 15.808V19H57.9101ZM63.2501 19L61.1501 15.952H63.2261L65.3501 19H63.2501ZM59.8541 16.024L58.9901 15.112H61.4381C62.0381 15.112 62.4861 14.984 62.7821 14.728C63.0781 14.464 63.2261 14.104 63.2261 13.648C63.2261 13.184 63.0781 12.824 62.7821 12.568C62.4861 12.312 62.0381 12.184 61.4381 12.184H58.9901L59.8541 11.26V16.024ZM68.3571 19V12.184H65.6691V10.6H72.9891V12.184H70.3011V19H68.3571ZM75.8351 14.38H79.8671V15.94H75.8351V14.38ZM75.9791 19H74.0351V10.6H80.3831V12.16H75.9791V19ZM85.6971 19.144C85.0331 19.144 84.4171 19.036 83.8491 18.82C83.2891 18.604 82.8011 18.3 82.3851 17.908C81.9771 17.516 81.6571 17.056 81.4251 16.528C81.2011 16 81.0891 15.424 81.0891 14.8C81.0891 14.176 81.2011 13.6 81.4251 13.072C81.6571 12.544 81.9811 12.084 82.3971 11.692C82.8131 11.3 83.3011 10.996 83.8611 10.78C84.4211 10.564 85.0291 10.456 85.6851 10.456C86.3491 10.456 86.9571 10.564 87.5091 10.78C88.0691 10.996 88.5531 11.3 88.9611 11.692C89.3771 12.084 89.7011 12.544 89.9331 13.072C90.1651 13.592 90.2811 14.168 90.2811 14.8C90.2811 15.424 90.1651 16.004 89.9331 16.54C89.7011 17.068 89.3771 17.528 88.9611 17.92C88.5531 18.304 88.0691 18.604 87.5091 18.82C86.9571 19.036 86.3531 19.144 85.6971 19.144ZM85.6851 17.488C86.0611 17.488 86.4051 17.424 86.7171 17.296C87.0371 17.168 87.3171 16.984 87.5571 16.744C87.7971 16.504 87.9811 16.22 88.1091 15.892C88.2451 15.564 88.3131 15.2 88.3131 14.8C88.3131 14.4 88.2451 14.036 88.1091 13.708C87.9811 13.38 87.7971 13.096 87.5571 12.856C87.3251 12.616 87.0491 12.432 86.7291 12.304C86.4091 12.176 86.0611 12.112 85.6851 12.112C85.3091 12.112 84.9611 12.176 84.6411 12.304C84.3291 12.432 84.0531 12.616 83.8131 12.856C83.5731 13.096 83.3851 13.38 83.2491 13.708C83.1211 14.036 83.0571 14.4 83.0571 14.8C83.0571 15.192 83.1211 15.556 83.2491 15.892C83.3851 16.22 83.5691 16.504 83.8011 16.744C84.0411 16.984 84.3211 17.168 84.6411 17.296C84.9611 17.424 85.3091 17.488 85.6851 17.488ZM91.7421 19V10.6H93.6861V17.416H97.8981V19H91.7421ZM98.9843 19V10.6H100.928V19H98.9843ZM107.002 19.144C106.338 19.144 105.722 19.036 105.154 18.82C104.594 18.604 104.106 18.3 103.69 17.908C103.282 17.516 102.962 17.056 102.73 16.528C102.506 16 102.394 15.424 102.394 14.8C102.394 14.176 102.506 13.6 102.73 13.072C102.962 12.544 103.286 12.084 103.702 11.692C104.118 11.3 104.606 10.996 105.166 10.78C105.726 10.564 106.334 10.456 106.99 10.456C107.654 10.456 108.262 10.564 108.814 10.78C109.374 10.996 109.858 11.3 110.266 11.692C110.682 12.084 111.006 12.544 111.238 13.072C111.47 13.592 111.586 14.168 111.586 14.8C111.586 15.424 111.47 16.004 111.238 16.54C111.006 17.068 110.682 17.528 110.266 17.92C109.858 18.304 109.374 18.604 108.814 18.82C108.262 19.036 107.658 19.144 107.002 19.144ZM106.99 17.488C107.366 17.488 107.71 17.424 108.022 17.296C108.342 17.168 108.622 16.984 108.862 16.744C109.102 16.504 109.286 16.22 109.414 15.892C109.55 15.564 109.618 15.2 109.618 14.8C109.618 14.4 109.55 14.036 109.414 13.708C109.286 13.38 109.102 13.096 108.862 12.856C108.63 12.616 108.354 12.432 108.034 12.304C107.714 12.176 107.366 12.112 106.99 12.112C106.614 12.112 106.266 12.176 105.946 12.304C105.634 12.432 105.358 12.616 105.118 12.856C104.878 13.096 104.69 13.38 104.554 13.708C104.426 14.036 104.362 14.4 104.362 14.8C104.362 15.192 104.426 15.556 104.554 15.892C104.69 16.22 104.874 16.504 105.106 16.744C105.346 16.984 105.626 17.168 105.946 17.296C106.266 17.424 106.614 17.488 106.99 17.488Z" fill="white"/>
</svg>
