<svg width="126" height="28" viewBox="0 0 126 28" fill="none" xmlns="http://www.w3.org/2000/svg">
<rect width="126" height="28" fill="#67DAB8"/>
<rect x="4" y="4" width="20" height="20" fill="white"/>
<path d="M42.632 10.6C43.376 10.6 44.02 10.724 44.564 10.972C45.116 11.22 45.54 11.572 45.836 12.028C46.132 12.484 46.28 13.024 46.28 13.648C46.28 14.264 46.132 14.804 45.836 15.268C45.54 15.724 45.116 16.076 44.564 16.324C44.02 16.564 43.376 16.684 42.632 16.684H40.94V19H38.996V10.6H42.632ZM42.524 15.1C43.108 15.1 43.552 14.976 43.856 14.728C44.16 14.472 44.312 14.112 44.312 13.648C44.312 13.176 44.16 12.816 43.856 12.568C43.552 12.312 43.108 12.184 42.524 12.184H40.94V15.1H42.524ZM51.8531 19.144C50.9811 19.144 50.1931 18.956 49.4891 18.58C48.7931 18.204 48.2451 17.688 47.8451 17.032C47.4531 16.368 47.2571 15.624 47.2571 14.8C47.2571 13.976 47.4531 13.236 47.8451 12.58C48.2451 11.916 48.7931 11.396 49.4891 11.02C50.1931 10.644 50.9811 10.456 51.8531 10.456C52.7251 10.456 53.5091 10.644 54.2051 11.02C54.9011 11.396 55.4491 11.916 55.8491 12.58C56.2491 13.236 56.4491 13.976 56.4491 14.8C56.4491 15.624 56.2491 16.368 55.8491 17.032C55.4491 17.688 54.9011 18.204 54.2051 18.58C53.5091 18.956 52.7251 19.144 51.8531 19.144ZM51.8531 17.488C52.3491 17.488 52.7971 17.376 53.1971 17.152C53.5971 16.92 53.9091 16.6 54.1331 16.192C54.3651 15.784 54.4811 15.32 54.4811 14.8C54.4811 14.28 54.3651 13.816 54.1331 13.408C53.9091 13 53.5971 12.684 53.1971 12.46C52.7971 12.228 52.3491 12.112 51.8531 12.112C51.3571 12.112 50.9091 12.228 50.5091 12.46C50.1091 12.684 49.7931 13 49.5611 13.408C49.3371 13.816 49.2251 14.28 49.2251 14.8C49.2251 15.32 49.3371 15.784 49.5611 16.192C49.7931 16.6 50.1091 16.92 50.5091 17.152C50.9091 17.376 51.3571 17.488 51.8531 17.488ZM63.2621 19L61.6421 16.66H61.5461H59.8541V19H57.9101V10.6H61.5461C62.2901 10.6 62.9341 10.724 63.4781 10.972C64.0301 11.22 64.4541 11.572 64.7501 12.028C65.0461 12.484 65.1941 13.024 65.1941 13.648C65.1941 14.272 65.0421 14.812 64.7381 15.268C64.4421 15.716 64.0181 16.06 63.4661 16.3L65.3501 19H63.2621ZM63.2261 13.648C63.2261 13.176 63.0741 12.816 62.7701 12.568C62.4661 12.312 62.0221 12.184 61.4381 12.184H59.8541V15.112H61.4381C62.0221 15.112 62.4661 14.984 62.7701 14.728C63.0741 14.472 63.2261 14.112 63.2261 13.648ZM68.3571 12.184H65.6691V10.6H72.9891V12.184H70.3011V19H68.3571V12.184ZM75.9791 12.16V14.38H79.8671V15.94H75.9791V19H74.0351V10.6H80.3831V12.16H75.9791ZM85.6851 19.144C84.8131 19.144 84.0251 18.956 83.3211 18.58C82.6251 18.204 82.0771 17.688 81.6771 17.032C81.2851 16.368 81.0891 15.624 81.0891 14.8C81.0891 13.976 81.2851 13.236 81.6771 12.58C82.0771 11.916 82.6251 11.396 83.3211 11.02C84.0251 10.644 84.8131 10.456 85.6851 10.456C86.5571 10.456 87.3411 10.644 88.0371 11.02C88.7331 11.396 89.2811 11.916 89.6811 12.58C90.0811 13.236 90.2811 13.976 90.2811 14.8C90.2811 15.624 90.0811 16.368 89.6811 17.032C89.2811 17.688 88.7331 18.204 88.0371 18.58C87.3411 18.956 86.5571 19.144 85.6851 19.144ZM85.6851 17.488C86.1811 17.488 86.6291 17.376 87.0291 17.152C87.4291 16.92 87.7411 16.6 87.9651 16.192C88.1971 15.784 88.3131 15.32 88.3131 14.8C88.3131 14.28 88.1971 13.816 87.9651 13.408C87.7411 13 87.4291 12.684 87.0291 12.46C86.6291 12.228 86.1811 12.112 85.6851 12.112C85.1891 12.112 84.7411 12.228 84.3411 12.46C83.9411 12.684 83.6251 13 83.3931 13.408C83.1691 13.816 83.0571 14.28 83.0571 14.8C83.0571 15.32 83.1691 15.784 83.3931 16.192C83.6251 16.6 83.9411 16.92 84.3411 17.152C84.7411 17.376 85.1891 17.488 85.6851 17.488ZM91.7421 10.6H93.6861V17.416H97.8981V19H91.7421V10.6ZM98.9843 10.6H100.928V19H98.9843V10.6ZM106.99 19.144C106.118 19.144 105.33 18.956 104.626 18.58C103.93 18.204 103.382 17.688 102.982 17.032C102.59 16.368 102.394 15.624 102.394 14.8C102.394 13.976 102.59 13.236 102.982 12.58C103.382 11.916 103.93 11.396 104.626 11.02C105.33 10.644 106.118 10.456 106.99 10.456C107.862 10.456 108.646 10.644 109.342 11.02C110.038 11.396 110.586 11.916 110.986 12.58C111.386 13.236 111.586 13.976 111.586 14.8C111.586 15.624 111.386 16.368 110.986 17.032C110.586 17.688 110.038 18.204 109.342 18.58C108.646 18.956 107.862 19.144 106.99 19.144ZM106.99 17.488C107.486 17.488 107.934 17.376 108.334 17.152C108.734 16.92 109.046 16.6 109.27 16.192C109.502 15.784 109.618 15.32 109.618 14.8C109.618 14.28 109.502 13.816 109.27 13.408C109.046 13 108.734 12.684 108.334 12.46C107.934 12.228 107.486 12.112 106.99 12.112C106.494 12.112 106.046 12.228 105.646 12.46C105.246 12.684 104.93 13 104.698 13.408C104.474 13.816 104.362 14.28 104.362 14.8C104.362 15.32 104.474 15.784 104.698 16.192C104.93 16.6 105.246 16.92 105.646 17.152C106.046 17.376 106.494 17.488 106.99 17.488Z" fill="white"/>
<path d="M10.0942 10H6.5L10.0942 19.3291H13.7149L16.8389 11.3669C17.1505 10.6322 17.7319 10.0342 18.4323 10H17.3752H14.6134C13.884 10 13.5563 10.5126 13.1995 11.3669L11.8913 14.6475L10.0942 10Z" fill="#67DAB8"/>
<path d="M17.4941 19.3291L19.3243 14.6646H18.4522C17.5503 14.6646 16.6484 13.4984 16.6484 12.3323C16.6484 11.1661 17.5503 10 18.4522 10H21.1544L19.3243 14.6646H20.1972C21.0987 14.6646 22.0001 15.8302 22.0001 16.9958C22.0001 18.1614 21.1223 19.328 20.2444 19.328C20.2281 19.3287 20.2119 19.3291 20.1956 19.3291H17.4941Z" fill="#67DAB8"/>
</svg>
